<svg  xmlns="http://www.w3.org/2000/svg">
   <g transform="scale(0.81)">
    <path fill="rgb(96,98,103)" d="m38.418,73.688c-6.365,0 -11.703,2.055 -16.014,6.157c-4.11,3.904 -6.44,8.759 -6.992,14.566l44.584,0c0,-5.755 -1.805,-10.561 -5.413,-14.416c-3.96,-4.203 -9.347,-6.307 -16.165,-6.307zm34.66,31.084l-58.04,0c0,9.41 2.579,16.643 7.742,21.697c4.56,4.405 10.426,6.608 17.594,6.608c8.169,0 14.986,-2.377 20.448,-7.134l6.014,10.285c-2.205,2.204 -5.587,4.106 -10.149,5.706c-5.714,2.105 -12.08,3.155 -19.096,3.155c-10.125,0 -18.718,-3.428 -25.786,-10.288c-7.87,-7.555 -11.805,-17.717 -11.805,-30.48c0,-13.264 4.036,-23.9 12.104,-31.908c7.219,-7.157 15.762,-10.737 25.639,-10.737c11.477,0 20.474,3.23 26.991,9.686c6.315,6.206 9.471,14.441 9.471,24.701c0,3.152 -0.375,6.057 -1.127,8.709z"/>
    <path fill="rgb(255,88,29)" d="m67.655,118.769l0,-98.768l15.57,0l0,96.149c0,4.694 1.352,8.389 4.056,11.088c2.706,2.703 6.239,4.051 10.612,4.051l0,13.912c-20.16,0 -30.238,-8.809 -30.238,-26.432z"/>
    <path fill="rgb(96,98,103)" d="m100.609,145.204l0,-65.467l-10.578,0l0,-11.498l24.252,0l0,76.965l-13.674,0z"/>
    <path fill="rgb(96,98,103)" d="m108.093,39.133c2.351,0 4.354,0.828 6.011,2.48c1.654,1.654 2.48,3.63 2.48,5.93c0,2.347 -0.826,4.348 -2.48,6.001c-1.657,1.652 -3.66,2.478 -6.011,2.478c-2.304,0 -4.281,-0.826 -5.938,-2.478c-1.655,-1.653 -2.483,-3.654 -2.483,-6.001c0,-2.348 0.818,-4.336 2.447,-5.966c1.631,-1.627 3.623,-2.444 5.974,-2.444z"/>
    <path fill="rgb(255,88,29)" d="m288.244,60.707c-0.011,-5.627 -0.325,-10.98 -0.794,-15.823c-0.468,-4.844 -1.088,-9.176 -1.649,-12.802c-1.135,-7.252 -1.989,-11.721 -0.797,-12.063c0.58,-0.164 1.599,0.742 2.843,2.605c1.241,1.862 2.692,4.689 4.067,8.333c1.375,3.642 2.664,8.1 3.6,13.146c0.935,5.044 1.511,10.672 1.523,16.587c0.014,5.912 -0.539,11.546 -1.452,16.591c-0.909,5.051 -2.18,9.512 -3.535,13.161c-1.355,3.652 -2.794,6.486 -4.023,8.355c-1.232,1.87 -2.246,2.783 -2.828,2.624c-1.193,-0.338 -0.365,-4.813 0.731,-12.072c1.105,-7.25 2.355,-17.374 2.314,-28.642z"/>
    <path fill="rgb(255,88,29)" d="m300.934,61.073c0.015,-10.468 -1.005,-19.885 -1.856,-26.657c-0.848,-6.776 -1.428,-10.973 -0.317,-11.237c1.072,-0.255 3.66,3.557 6.006,10.372c2.346,6.786 4.322,16.6 4.307,27.522c0.015,10.92 -1.961,20.736 -4.307,27.522c-2.346,6.816 -4.934,10.627 -6.006,10.372c-1.111,-0.264 -0.531,-4.461 0.317,-11.238c0.851,-6.771 1.871,-16.188 1.856,-26.656z"/>
    <path fill="rgb(255,88,29)" d="m314.185,61.118c0.012,-8.194 -0.715,-15.575 -1.297,-20.892c-0.58,-5.321 -0.943,-8.625 -0.07,-8.809c0.844,-0.176 2.779,2.858 4.525,8.203c1.746,5.326 3.217,12.984 3.201,21.5c0.01,8.516 -1.463,16.174 -3.213,21.499c-1.75,5.344 -3.687,8.376 -4.533,8.198c-0.873,-0.183 -0.506,-3.486 0.076,-8.806c0.586,-5.319 1.319,-12.698 1.311,-20.893z"/>
    <path fill="rgb(255,88,29)" d="m275.888,60.694c-0.014,-5.601 -0.361,-10.926 -0.888,-15.737c-0.524,-4.812 -1.221,-9.107 -1.864,-12.699c-1.295,-7.179 -2.322,-11.58 -1.144,-11.968c0.574,-0.183 1.625,0.678 2.927,2.496c1.297,1.816 2.833,4.596 4.293,8.207c1.457,3.608 2.831,8.047 3.827,13.087c0.997,5.036 1.611,10.672 1.624,16.592c0.018,5.92 -0.569,11.558 -1.541,16.599c-0.964,5.044 -2.315,9.489 -3.752,13.105c-1.433,3.62 -2.955,6.41 -4.24,8.235c-1.288,1.827 -2.333,2.697 -2.907,2.517c-1.181,-0.38 -0.187,-4.791 1.064,-11.979c1.263,-7.179 2.647,-17.242 2.601,-28.455z"/>
    <path fill="rgb(255,88,29)" d="m263.81,60.6c-0.015,-5.241 -0.33,-10.224 -0.801,-14.728c-0.47,-4.504 -1.094,-8.529 -1.666,-11.896c-1.15,-6.73 -2.049,-10.862 -0.944,-11.209c0.537,-0.165 1.509,0.656 2.704,2.369c1.191,1.712 2.596,4.326 3.928,7.709c1.332,3.382 2.584,7.534 3.493,12.242c0.909,4.704 1.471,9.963 1.487,15.487c0.019,5.525 -0.51,10.786 -1.388,15.496c-0.874,4.712 -2.098,8.872 -3.404,12.263c-1.303,3.394 -2.69,6.017 -3.864,7.741c-1.18,1.724 -2.143,2.554 -2.683,2.394c-1.108,-0.336 -0.248,-4.481 0.851,-11.221c1.109,-6.734 2.337,-16.154 2.287,-26.647z"/>
    <path fill="rgb(255,88,29)" d="m251.365,60.419c-0.021,-8.887 -0.846,-16.885 -1.513,-22.644c-0.664,-5.762 -1.093,-9.335 -0.149,-9.543c0.914,-0.201 3.049,3.068 4.978,8.856c1.93,5.766 3.561,14.069 3.582,23.306c0.045,9.237 -1.517,17.548 -3.398,23.331c-1.879,5.803 -3.979,9.094 -4.894,8.903c-0.948,-0.199 -0.553,-3.778 0.06,-9.548c0.617,-5.766 1.378,-13.773 1.334,-22.661z"/>
    <path fill="rgb(255,88,29)" d="m240.313,60.132c-0.026,-11.098 -1.329,-19.987 -0.146,-20.122c0.579,-0.065 1.669,2.088 2.628,5.714c0.962,3.621 1.761,8.726 1.785,14.389c0.03,5.661 -0.723,10.772 -1.645,14.403c-0.923,3.637 -1.99,5.801 -2.57,5.741c-1.186,-0.122 0.025,-9.027 -0.052,-20.125z"/>
    <path fill="rgb(96,98,103)" d="m199.96,129.243l0,11.377c0,0.195 0.436,0.519 1.307,0.967c0.871,0.447 1.533,0.673 1.989,0.673c2.38,0 4.086,-0.572 5.118,-1.713c1.029,-1.142 1.546,-3.056 1.546,-5.743c0,-2.235 -0.602,-3.977 -1.805,-5.23c-1.203,-1.251 -2.824,-1.878 -4.859,-1.878c-0.432,0 -1.028,0.185 -1.797,0.553c-0.767,0.367 -1.267,0.699 -1.499,0.994zm-0.518,14.176l-1.231,1.785l-1.749,0l0,-28.167l3.498,0l0,9.536c0.332,-0.453 0.953,-0.871 1.867,-1.252c0.915,-0.38 1.815,-0.57 2.697,-0.57c2.702,0 4.889,0.933 6.563,2.799c1.676,1.865 2.514,4.222 2.514,7.069c0,3.29 -0.84,5.876 -2.522,7.759c-1.681,1.885 -3.959,2.826 -6.83,2.826c-0.934,0 -1.85,-0.174 -2.752,-0.523c-0.903,-0.352 -1.587,-0.772 -2.055,-1.262z"/>
    <path fill="rgb(96,98,103)" d="m225.587,127.696c-1.559,0 -2.866,0.504 -3.921,1.51c-1.009,0.957 -1.578,2.148 -1.714,3.57l10.919,0c0,-1.41 -0.442,-2.588 -1.327,-3.533c-0.969,-1.031 -2.289,-1.547 -3.957,-1.547zm8.487,7.621l-14.213,0c0,2.309 0.632,4.082 1.896,5.322c1.117,1.079 2.553,1.62 4.307,1.62c2.002,0 3.669,-0.583 5.007,-1.75l1.475,2.523c-0.54,0.541 -1.369,1.006 -2.484,1.398c-1.402,0.516 -2.959,0.774 -4.678,0.774c-2.479,0 -4.584,-0.84 -6.314,-2.522c-1.928,-1.852 -2.891,-4.345 -2.891,-7.474c0,-3.252 0.988,-5.861 2.965,-7.825c1.767,-1.755 3.859,-2.632 6.277,-2.632c2.811,0 5.014,0.792 6.609,2.375c1.547,1.522 2.319,3.541 2.319,6.056c0,0.774 -0.09,1.487 -0.275,2.135z"/>
    <path fill="rgb(96,98,103)" d="m248.838,135.153c-1.105,-0.246 -1.878,-0.369 -2.319,-0.369c-1.767,0 -3.209,0.454 -4.327,1.362c-1.117,0.909 -1.675,1.984 -1.675,3.222c0,2.05 1.208,3.074 3.627,3.074c1.767,0 3.332,-0.839 4.694,-2.521l0,-4.768zm0.331,7.418c-1.398,1.756 -3.541,2.633 -6.426,2.633c-1.546,0 -2.886,-0.561 -4.021,-1.685c-1.135,-1.122 -1.703,-2.518 -1.703,-4.188c0,-1.999 0.874,-3.691 2.623,-5.073c1.751,-1.379 3.98,-2.07 6.692,-2.07c0.736,0 1.571,0.16 2.504,0.479c0,-3.191 -1.425,-4.786 -4.271,-4.786c-2.184,0 -3.867,0.588 -5.045,1.767l-1.472,-2.927c0.662,-0.541 1.58,-1.004 2.752,-1.39c1.173,-0.387 2.292,-0.58 3.359,-0.58c2.86,0 4.937,0.65 6.233,1.951c1.295,1.301 1.943,3.369 1.943,6.204l0,7.069c0,1.731 0.514,2.885 1.546,3.461l0,1.75c-1.425,0 -2.489,-0.203 -3.194,-0.607c-0.706,-0.406 -1.212,-1.074 -1.52,-2.008z"/>
    <path fill="rgb(96,98,103)" d="m280.669,144.837l0,-12.482c0,-3.105 -1.344,-4.659 -4.031,-4.659c-0.848,0 -1.639,0.262 -2.375,0.784c-0.737,0.52 -1.24,1.113 -1.511,1.775l0,14.582l-3.497,0l0,-14.01c0,-0.97 -0.365,-1.734 -1.096,-2.293c-0.73,-0.558 -1.696,-0.838 -2.9,-0.838c-0.698,0 -1.444,0.272 -2.236,0.811c-0.792,0.54 -1.352,1.135 -1.685,1.785l0,14.545l-3.497,0l0,-19.719l2.283,0l1.159,2.285c1.351,-1.767 3.038,-2.652 5.063,-2.652c2.824,0 4.8,0.877 5.928,2.633c0.393,-0.749 1.124,-1.375 2.191,-1.878c1.067,-0.503 2.165,-0.755 3.295,-0.755c2.038,0 3.614,0.606 4.729,1.815c1.119,1.208 1.677,2.904 1.677,5.089l0,13.182l-3.497,0z"/>
    <path fill="rgb(96,98,103)" d="m289.414,139.259l0,-22.222l3.497,0l0,21.632c0,1.056 0.304,1.888 0.912,2.495c0.608,0.607 1.403,0.911 2.383,0.911l0,3.129c-4.527,0 -6.792,-1.981 -6.792,-5.945z"/>
    <path fill="rgb(96,98,103)" d="m303.867,117.663c0.6,0 1.113,0.211 1.536,0.635c0.423,0.424 0.634,0.929 0.634,1.519c0,0.602 -0.211,1.114 -0.634,1.537c-0.423,0.424 -0.936,0.635 -1.536,0.635c-0.59,0 -1.096,-0.211 -1.52,-0.635c-0.423,-0.423 -0.635,-0.935 -0.635,-1.537c0,-0.6 0.209,-1.11 0.626,-1.527c0.418,-0.418 0.925,-0.627 1.529,-0.627zm-1.917,27.174l0,-16.772l-2.705,0l0,-2.947l6.206,0l0,19.719l-3.501,0z"/>
    <path fill="rgb(96,98,103)" d="m323.14,144.837l0,-11.469c0,-2.099 -0.316,-3.57 -0.947,-4.41c-0.633,-0.841 -1.692,-1.262 -3.176,-1.262c-0.799,0 -1.631,0.24 -2.504,0.719c-0.873,0.479 -1.539,1.068 -2.008,1.766l0,14.656l-3.496,0l0,-19.719l2.393,0l1.103,2.541c1.155,-1.939 3.039,-2.908 5.653,-2.908c4.32,0 6.48,2.627 6.48,7.879l0,12.207l-3.498,0z"/>
    <path fill="rgb(96,98,103)" d="m339.728,127.696c-1.561,0 -2.865,0.504 -3.922,1.51c-1.006,0.957 -1.576,2.148 -1.711,3.57l10.916,0c0,-1.41 -0.441,-2.588 -1.324,-3.533c-0.973,-1.031 -2.291,-1.547 -3.959,-1.547zm8.486,7.621l-14.211,0c0,2.309 0.631,4.082 1.897,5.322c1.115,1.079 2.551,1.62 4.307,1.62c2,0 3.669,-0.583 5.007,-1.75l1.473,2.523c-0.541,0.541 -1.369,1.006 -2.486,1.398c-1.397,0.516 -2.957,0.774 -4.676,0.774c-2.479,0 -4.584,-0.84 -6.315,-2.522c-1.925,-1.852 -2.89,-4.345 -2.89,-7.474c0,-3.252 0.988,-5.861 2.965,-7.825c1.765,-1.755 3.859,-2.632 6.277,-2.632c2.811,0 5.014,0.792 6.609,2.375c1.545,1.522 2.321,3.541 2.321,6.056c0,0.774 -0.094,1.487 -0.278,2.135z"/>
    <path fill="rgb(96,98,103)" d="m350.884,143.657l1.234,-3.313c1.95,1.277 3.522,1.916 4.713,1.916c2.16,0 3.239,-0.91 3.239,-2.726c0,-1.301 -1.041,-2.418 -3.129,-3.351c-1.606,-0.736 -2.692,-1.296 -3.248,-1.675c-0.559,-0.38 -1.045,-0.814 -1.455,-1.298c-0.413,-0.484 -0.719,-1 -0.922,-1.545c-0.202,-0.547 -0.303,-1.133 -0.303,-1.76c0,-1.619 0.59,-2.883 1.766,-3.792c1.179,-0.908 2.72,-1.362 4.623,-1.362c1.435,0 3.246,0.454 5.429,1.362l-0.992,3.241c-1.387,-1.105 -2.781,-1.658 -4.18,-1.658c-0.834,0 -1.537,0.197 -2.107,0.59c-0.572,0.392 -0.855,0.89 -0.855,1.491c0,1.265 0.716,2.222 2.152,2.872l2.504,1.142c1.533,0.699 2.65,1.497 3.351,2.392c0.698,0.896 1.049,2.019 1.049,3.37c0,1.767 -0.621,3.151 -1.859,4.152c-1.239,0.999 -2.959,1.499 -5.155,1.499c-2.074,0 -4.025,-0.515 -5.855,-1.547z"/>
    <path fill="rgb(96,98,103)" d="m155.994,164.749l-1,0l0,-164.749l1,0l0,164.749z"/>
   </g>
</svg>
